<mxfile host="app.diagrams.net" modified="2023-10-15T17:33:02.623Z" agent="Mozilla/5.0 (Windows NT 10.0; Win64; x64) AppleWebKit/537.36 (KHTML, like Gecko) Chrome/118.0.0.0 Safari/537.36" etag="2CULd7cICX3ILHjAKzpq" version="22.0.4" type="github">
  <diagram id="C5RBs43oDa-KdzZeNtuy" name="Page-1">
    <mxGraphModel dx="1434" dy="758" grid="1" gridSize="10" guides="1" tooltips="1" connect="1" arrows="1" fold="1" page="1" pageScale="1" pageWidth="827" pageHeight="1169" background="none" math="0" shadow="0">
      <root>
        <mxCell id="WIyWlLk6GJQsqaUBKTNV-0" />
        <mxCell id="WIyWlLk6GJQsqaUBKTNV-1" parent="WIyWlLk6GJQsqaUBKTNV-0" />
        <mxCell id="WIyWlLk6GJQsqaUBKTNV-3" value="User Dashboard" style="rounded=1;whiteSpace=wrap;html=1;fontSize=12;glass=0;strokeWidth=1;shadow=0;" parent="WIyWlLk6GJQsqaUBKTNV-1" vertex="1">
          <mxGeometry x="370" y="30" width="120" height="40" as="geometry" />
        </mxCell>
        <mxCell id="yv1JkRwObRtctxCxsuZl-3" value="Booking" style="rounded=1;whiteSpace=wrap;html=1;" vertex="1" parent="WIyWlLk6GJQsqaUBKTNV-1">
          <mxGeometry x="110" y="210" width="120" height="60" as="geometry" />
        </mxCell>
        <mxCell id="yv1JkRwObRtctxCxsuZl-4" value="History" style="rounded=1;whiteSpace=wrap;html=1;" vertex="1" parent="WIyWlLk6GJQsqaUBKTNV-1">
          <mxGeometry x="340" y="210" width="120" height="60" as="geometry" />
        </mxCell>
        <mxCell id="yv1JkRwObRtctxCxsuZl-5" value="Support and Ticketing" style="rounded=1;whiteSpace=wrap;html=1;" vertex="1" parent="WIyWlLk6GJQsqaUBKTNV-1">
          <mxGeometry x="500" y="210" width="120" height="60" as="geometry" />
        </mxCell>
        <mxCell id="yv1JkRwObRtctxCxsuZl-13" value="" style="edgeStyle=orthogonalEdgeStyle;rounded=0;orthogonalLoop=1;jettySize=auto;html=1;" edge="1" parent="WIyWlLk6GJQsqaUBKTNV-1" source="yv1JkRwObRtctxCxsuZl-6" target="yv1JkRwObRtctxCxsuZl-12">
          <mxGeometry relative="1" as="geometry" />
        </mxCell>
        <mxCell id="yv1JkRwObRtctxCxsuZl-6" value="My profile" style="rounded=1;whiteSpace=wrap;html=1;" vertex="1" parent="WIyWlLk6GJQsqaUBKTNV-1">
          <mxGeometry x="690" y="210" width="120" height="60" as="geometry" />
        </mxCell>
        <mxCell id="yv1JkRwObRtctxCxsuZl-7" value="" style="endArrow=classic;html=1;rounded=0;exitX=0.5;exitY=1;exitDx=0;exitDy=0;entryX=0.417;entryY=0.033;entryDx=0;entryDy=0;entryPerimeter=0;" edge="1" parent="WIyWlLk6GJQsqaUBKTNV-1" source="WIyWlLk6GJQsqaUBKTNV-3" target="yv1JkRwObRtctxCxsuZl-4">
          <mxGeometry width="50" height="50" relative="1" as="geometry">
            <mxPoint x="390" y="370" as="sourcePoint" />
            <mxPoint x="440" y="320" as="targetPoint" />
            <Array as="points">
              <mxPoint x="430" y="160" />
              <mxPoint x="390" y="160" />
            </Array>
          </mxGeometry>
        </mxCell>
        <mxCell id="yv1JkRwObRtctxCxsuZl-8" value="" style="endArrow=classic;html=1;rounded=0;exitX=0.5;exitY=1;exitDx=0;exitDy=0;" edge="1" parent="WIyWlLk6GJQsqaUBKTNV-1" source="WIyWlLk6GJQsqaUBKTNV-3" target="yv1JkRwObRtctxCxsuZl-5">
          <mxGeometry width="50" height="50" relative="1" as="geometry">
            <mxPoint x="390" y="370" as="sourcePoint" />
            <mxPoint x="440" y="320" as="targetPoint" />
            <Array as="points">
              <mxPoint x="430" y="160" />
              <mxPoint x="560" y="160" />
            </Array>
          </mxGeometry>
        </mxCell>
        <mxCell id="yv1JkRwObRtctxCxsuZl-10" value="" style="endArrow=classic;html=1;rounded=0;exitX=0.5;exitY=1;exitDx=0;exitDy=0;entryX=0.5;entryY=0;entryDx=0;entryDy=0;" edge="1" parent="WIyWlLk6GJQsqaUBKTNV-1" source="WIyWlLk6GJQsqaUBKTNV-3" target="yv1JkRwObRtctxCxsuZl-6">
          <mxGeometry width="50" height="50" relative="1" as="geometry">
            <mxPoint x="490" y="120" as="sourcePoint" />
            <mxPoint x="770" y="160" as="targetPoint" />
            <Array as="points">
              <mxPoint x="430" y="160" />
              <mxPoint x="750" y="160" />
            </Array>
          </mxGeometry>
        </mxCell>
        <mxCell id="yv1JkRwObRtctxCxsuZl-11" value="" style="endArrow=classic;html=1;rounded=0;exitX=0.5;exitY=1;exitDx=0;exitDy=0;entryX=0.5;entryY=0;entryDx=0;entryDy=0;" edge="1" parent="WIyWlLk6GJQsqaUBKTNV-1" source="WIyWlLk6GJQsqaUBKTNV-3">
          <mxGeometry width="50" height="50" relative="1" as="geometry">
            <mxPoint x="390" y="70" as="sourcePoint" />
            <mxPoint x="170" y="210" as="targetPoint" />
            <Array as="points">
              <mxPoint x="430" y="110" />
              <mxPoint x="430" y="160" />
              <mxPoint x="170" y="160" />
            </Array>
          </mxGeometry>
        </mxCell>
        <mxCell id="yv1JkRwObRtctxCxsuZl-12" value="" style="ellipse;whiteSpace=wrap;html=1;rounded=1;fillStyle=solid;fillColor=#0D0D0D;direction=west;" vertex="1" parent="WIyWlLk6GJQsqaUBKTNV-1">
          <mxGeometry x="730" y="320" width="40" height="40" as="geometry" />
        </mxCell>
        <mxCell id="yv1JkRwObRtctxCxsuZl-14" value="" style="edgeStyle=orthogonalEdgeStyle;rounded=0;orthogonalLoop=1;jettySize=auto;html=1;" edge="1" parent="WIyWlLk6GJQsqaUBKTNV-1" target="yv1JkRwObRtctxCxsuZl-15">
          <mxGeometry relative="1" as="geometry">
            <mxPoint x="560" y="270" as="sourcePoint" />
            <Array as="points">
              <mxPoint x="561" y="270" />
              <mxPoint x="561" y="290" />
              <mxPoint x="560" y="290" />
            </Array>
          </mxGeometry>
        </mxCell>
        <mxCell id="yv1JkRwObRtctxCxsuZl-15" value="" style="ellipse;whiteSpace=wrap;html=1;rounded=1;fillStyle=solid;fillColor=#0D0D0D;direction=west;" vertex="1" parent="WIyWlLk6GJQsqaUBKTNV-1">
          <mxGeometry x="540" y="320" width="40" height="40" as="geometry" />
        </mxCell>
        <mxCell id="yv1JkRwObRtctxCxsuZl-18" value="User would be able to see the all &lt;br&gt;previous bookings" style="rounded=1;whiteSpace=wrap;html=1;" vertex="1" parent="WIyWlLk6GJQsqaUBKTNV-1">
          <mxGeometry x="340" y="350" width="120" height="60" as="geometry" />
        </mxCell>
        <mxCell id="yv1JkRwObRtctxCxsuZl-19" value="" style="edgeStyle=orthogonalEdgeStyle;rounded=0;orthogonalLoop=1;jettySize=auto;html=1;exitX=0.5;exitY=1;exitDx=0;exitDy=0;entryX=0.5;entryY=0;entryDx=0;entryDy=0;" edge="1" parent="WIyWlLk6GJQsqaUBKTNV-1" source="yv1JkRwObRtctxCxsuZl-4" target="yv1JkRwObRtctxCxsuZl-18">
          <mxGeometry relative="1" as="geometry">
            <mxPoint x="570" y="280" as="sourcePoint" />
            <mxPoint x="570" y="330" as="targetPoint" />
            <Array as="points">
              <mxPoint x="400" y="300" />
              <mxPoint x="400" y="300" />
            </Array>
          </mxGeometry>
        </mxCell>
        <mxCell id="yv1JkRwObRtctxCxsuZl-22" value="&lt;font style=&quot;font-size: 9px;&quot;&gt;Javascript function returns booking history for the authorized user&lt;/font&gt;" style="edgeLabel;html=1;align=center;verticalAlign=middle;resizable=0;points=[];container=1;" vertex="1" connectable="0" parent="yv1JkRwObRtctxCxsuZl-19">
          <mxGeometry relative="1" as="geometry">
            <mxPoint as="offset" />
          </mxGeometry>
        </mxCell>
        <mxCell id="yv1JkRwObRtctxCxsuZl-20" value="" style="edgeStyle=orthogonalEdgeStyle;rounded=0;orthogonalLoop=1;jettySize=auto;html=1;exitX=0.5;exitY=1;exitDx=0;exitDy=0;" edge="1" parent="WIyWlLk6GJQsqaUBKTNV-1" target="yv1JkRwObRtctxCxsuZl-21" source="yv1JkRwObRtctxCxsuZl-18">
          <mxGeometry relative="1" as="geometry">
            <mxPoint x="400" y="380" as="sourcePoint" />
            <Array as="points">
              <mxPoint x="400" y="440" />
              <mxPoint x="400" y="440" />
            </Array>
          </mxGeometry>
        </mxCell>
        <mxCell id="yv1JkRwObRtctxCxsuZl-21" value="" style="ellipse;whiteSpace=wrap;html=1;rounded=1;fillStyle=solid;fillColor=#0D0D0D;direction=west;" vertex="1" parent="WIyWlLk6GJQsqaUBKTNV-1">
          <mxGeometry x="380" y="460" width="40" height="40" as="geometry" />
        </mxCell>
      </root>
    </mxGraphModel>
  </diagram>
</mxfile>
